# AST/ASF file generated using VICON BodyLanguage
# -----------------------------------------------
:version 1.10
:name VICON
:units
  mass 1.0
  length 0.45
  angle deg
:documentation
   .ast/.asf automatically generated from VICON data using
   VICON BodyBuilder and BodyLanguage model FoxedUp or BRILLIANT.MOD
:root
   order TX TY TZ RX RY RZ
   axis XYZ
   position 0 0 0  
   orientation 0 0 0 
:bonedata
  begin
     id 1 
     name lhipjoint
     direction 0.671379 -0.66392 0.329334 
     length 2.38647 
     axis 0 0 0  XYZ
  end
  begin
     id 2 
     name lfemur
     direction 0.34202 -0.939693 0  
     length 6.48179  
     axis 0 0 20  XYZ
    dof rx ry rz
    limits (-160.0 20.0)
           (-70.0 70.0)
           (-60.0 70.0)
  end
  begin
     id 3 
     name ltibia
     direction 0.34202 -0.939693 0   
     length 6.86524   
     axis 0 0 20   XYZ
    dof rx
    limits (-10.0 170.0)
  end
  begin
     id 4 
     name lfoot
     direction 0.204886 -0.562919 0.800715   
     length 1.73031   
     axis -90 7.62852e-016 20   XYZ
    dof rx rz
    limits (-45.0 90.0)
           (-70.0 20.0)
  end
  begin
     id 5 
     name ltoes
     direction 1.53548e-011 -4.21841e-011 1   
     length 0.828161   
     axis -90 7.62852e-016 20   XYZ
    dof rx
    limits (-90.0 20.0)
  end
  begin
     id 6 
     name rhipjoint
     direction -0.662732 -0.670855 0.332775   
     length 2.3618  
     axis 0 0 0  XYZ 
  end
  begin
     id 7 
     name rfemur
     direction -0.34202 -0.939693 0   
     length 6.3025   
     axis 0 0 -20   XYZ
    dof rx ry rz
    limits (-160.0 20.0)
           (-70.0 70.0)
           (-70.0 60.0)
  end
  begin
     id 8 
     name rtibia
     direction -0.34202 -0.939693 0   
     length 6.8732   
     axis 0 0 -20   XYZ
    dof rx
    limits (-10.0 170.0)
 end
 begin
     id 9 
     name rfoot
     direction -0.173856 -0.477665 0.861168   
     length 1.54784  
     axis -90 -7.62852e-016 -20   XYZ
    dof rx rz
    limits (-45.0 90.0)
           (-20.0 70.0)
  end
  begin
     id 10 
     name rtoes
     direction -1.53562e-011 -4.21802e-011 1   
     length 0.759618   
     axis -90 -7.62852e-016 -20   XYZ
    dof rx
    limits (-90.0 20.0)
  end
  begin
     id 11 
     name lowerback
     direction -0.0278357 0.999497 -0.0151789   
     length 1.97203   
     axis 0 0 0   XYZ
    dof rx ry rz
    limits (-20.0 45.0)
           (-30.0 30.0)
           (-30.0 30.0)
  end
  begin
     id 12 
     name upperback
     direction -0.00360622 0.997542 0.0699804   
     length 1.94709   
     axis 0 0 0   XYZ
    dof rx ry rz
    limits (-20.0 45.0)
           (-30.0 30.0)
           (-30.0 30.0)
  end
  begin
     id 13 
     name thorax
     direction 0.00907706 0.997048 0.0762461   
     length 1.95722   
     axis 0 0 0   XYZ
    dof rx ry rz
    limits (-20.0 45.0)
           (-30.0 30.0)
           (-30.0 30.0)
  end
  begin
     id 14 
     name lowerneck
     direction -0.0481835 0.99872 -0.0153927   
     length 1.63078   
     axis 0 0 0   XYZ
    dof rx ry rz
    limits (-20.0 45.0)
           (-30.0 30.0)
           (-30.0 30.0)
  end
  begin
     id 15 
     name upperneck
     direction 0.0859716 0.979226 -0.183644   
     length 1.62591   
     axis 0 0 0   XYZ
    dof rx ry rz
    limits (-20.0 45.0)
           (-30.0 30.0)
           (-30.0 30.0)
  end
  begin
     id 16
     name head
     direction 0.0324821 0.997629 -0.0606773  
     length 1.64811  
     axis 0 0 0   XYZ
    dof rx ry rz
    limits (-20.0 45.0)
           (-30.0 30.0)
           (-30.0 30.0)
  end
  begin
     id 17 
     name lclavicle
     direction 0.939609 0.311019 0.142835  
     length 3.70647  
     axis 0 0 0   XYZ
    dof ry rz
    limits (-20.0 10.0)
           (0.0 20.0)
  end
  begin
     id 18 
     name lhumerus
     direction 1 -4.48963e-011 -1.59838e-027   
     length 4.59207   
     axis 180 -30 -90   XYZ
    dof rx ry rz
    limits (-60.0 90.0)
           (-90.0 90.0)
           (-90.0 90.0)
  end
  begin
     id 19
     name lradius
     direction 1 -4.48957e-011 -1.3483e-026   
     length 2.98109   
     axis 180 -30 -90   XYZ
    dof rx
    limits (-10.0 170.0)
  end
  begin
     id 20
     name lwrist
     direction 1 -4.48954e-011 -3.11579e-026   
     length 1.49055   
     axis 2.00652e-014 90 90   XYZ
    dof ry
    limits (-180.0 0.0)
 end
  begin
     id 21 
     name lhand
     direction 1 -4.4911e-011 -6.23158e-026   
     length 0.480203   
     axis 3.97628e-014 90 90   XYZ
    dof rx rz
    limits (-90.0 90.0)
           (-45.0 45.0)
  end
  begin
     id 22 
     name lfingers
     direction 1 -4.48893e-011 -1.24632e-025   
     length 0.387152   
     axis 7.95256e-014 90 90   XYZ
    dof rx
    limits (0.0 90.0)
  end
  begin
     id 23
     name lthumb
     direction 0.707107 -6.35013e-011 0.707107   
     length 0.555875   
     axis -90 45 2.85299e-015   XYZ
    dof rx rz
    limits (-45.0 45.0)
           (-45.0 45.0)
  end
  begin
     id 24 
     name rclavicle
     direction -0.950396 0.30392 0.0661859   
     length 3.70894  
     axis 0 0 0   XYZ 
    dof ry rz
    limits (-10.0 20.0)
           (-20.0 0.0)
  end
  begin
     id 25 
     name rhumerus
     direction -1 -4.48957e-011 -2.96677e-027  
     length 4.76508   
     axis 180 30 90   XYZ
    dof rx ry rz
    limits (-90.0 60.0)
           (-90.0 90.0)
           (-90.0 90.0)
  end
  begin
     id 26 
     name rradius
     direction -1 -4.48974e-011 -1.44501e-026   
     length 2.78902   
     axis 180 30 90   XYZ
    dof rx
    limits (-10.0 170.0)
  end
  begin
     id 27 
     name rwrist
     direction -1 -4.48978e-011 -3.11579e-026   
     length 1.39451   
     axis 2.00652e-014 -90 -90   XYZ
    dof ry
    limits (-180.0 0.0)
  end
  begin
     id 28
     name rhand
     direction -1 -4.48956e-011 -6.23158e-026   
     length 0.721303   
     axis 3.97628e-014 -90 -90   XYZ
    dof rx rz
    limits (-90.0 90.0)
           (-45.0 45.0)
  end
  begin
     id 29
     name rfingers
     direction -1 -4.4899e-011 -1.24632e-025   
     length 0.581533   
     axis 7.95256e-014 -90 -90   XYZ
    dof rx
    limits (0.0 90.0)
  end
  begin
     id 30
     name rthumb
     direction -0.707107 -6.34911e-011 0.707107   
     length 0.834968   
     axis -90 -45 -2.85299e-015   XYZ
    dof rx rz
    limits (-45.0 45.0)
           (-45.0 45.0)
  end
:hierarchy
  begin
    root lhipjoint rhipjoint lowerback
    lhipjoint lfemur
    lfemur ltibia
    ltibia lfoot
    lfoot ltoes
    rhipjoint rfemur
    rfemur rtibia
    rtibia rfoot
    rfoot rtoes
    lowerback upperback
    upperback thorax
    thorax lowerneck lclavicle rclavicle
    lowerneck upperneck
    upperneck head
    lclavicle lhumerus
    lhumerus lradius
    lradius lwrist
    lwrist lhand lthumb
    lhand lfingers
    rclavicle rhumerus
    rhumerus rradius
    rradius rwrist
    rwrist rhand rthumb
    rhand rfingers
  end

#!OML:ASF I:\salsa\salsa 7_09\Patient 1\Session 1\dancerfemale.ASF
:FULLY-SPECIFIED
:DEGREES
527
root 14.3132 16.0628 1.96841 186.625 285.203 -173.751
lowerback 1.83019 0.604223 6.86535
upperback -7.47317 0.785627 -3.24201
thorax -8.84412 -0.347842 -7.4079
lowerneck -0.851875 -4.11079 -9.75692
upperneck 1.63422 -5.61319 10.634
head 1.20143 -2.79089 4.68582
rclavicle -2.08475e-014 -1.59028e-014
rhumerus -38.0686 1.74128 -99.0742
rradius 91.8732
rwrist -1.74461
rhand -0.0328803 31.527
rfingers 7.12502
rthumb 25.5589 3.22174
lclavicle -2.08475e-014 -1.59028e-014
lhumerus -19.9211 -22.8956 104.06
lradius 66.5783
lwrist -13.3195
lhand -38.3558 48.0539
lfingers 7.12502
lthumb -11.3825 77.7249
rfemur -2.13321 -9.98073 24.2645
rtibia 32.2495
rfoot 8.51599 -19.4581
rtoes -7.21996
lfemur -37.0367 4.94065 -27.0476
ltibia 38.5625
lfoot -19.1176 11.2622
ltoes -9.12533
528
root 14.1007 16.0332 1.99624 189.7 282.603 -178.097
lowerback 2.90616 0.705316 6.42132
upperback -7.07747 0.98496 -3.34617
thorax -9.00433 -0.199445 -7.30614
lowerneck -0.212383 -5.31702 -10.7358
upperneck 0.982834 -7.21697 10.2959
head 1.09476 -3.60994 4.71311
rclavicle -2.16427e-014 -7.95139e-016
rhumerus -38.1609 2.11429 -98.5233
rradius 90.6586
rwrist -0.5056
rhand 1.76862 30.9099
rfingers 7.12502
rthumb 27.2833 2.8637
lclavicle -2.16427e-014 -7.95139e-016
lhumerus -21.9232 -22.9925 104.93
lradius 66.8877
lwrist -13.312
lhand -37.7508 46.2682
lfingers 7.12502
lthumb -10.7989 75.9706
rfemur -4.64942 -11.127 22.8346
rtibia 39.0753
rfoot 10.7366 -20.4641
rtoes -3.92896
lfemur -34.5138 4.70531 -28.839
ltibia 37.5002
lfoot -18.9531 9.08138
ltoes -9.47543
529
root 13.9007 15.9796 2.01447 199.289 280.445 -189.484
lowerback 4.47468 0.608282 4.90501
upperback -6.58322 0.815168 -3.58678
thorax -9.4125 -0.17307 -6.71274
lowerneck 1.03116 -6.24969 -11.8297
upperneck -0.138093 -8.52071 10.1792
head 0.742943 -4.28731 4.86615
rclavicle 1.20886e-014 2.78299e-014
rhumerus -38.4543 3.51351 -98.2873
rradius 89.4795
rwrist 0.286006
rhand 3.79286 29.987
rfingers 7.12502
rthumb 29.2179 2.26097
lclavicle 1.20886e-014 2.78299e-014
lhumerus -23.7614 -22.0589 105.291
lradius 67.0856
lwrist -13.747
lhand -37.0871 44.353
lfingers 7.12502
lthumb -10.1586 74.0877
rfemur -6.84376 -12.2396 20.1497
rtibia 46.3296
rfoot 12.6058 -19.6804
rtoes -1.02279
lfemur -31.5017 5.03433 -31.4999
ltibia 36.5317
lfoot -18.8278 6.43025
ltoes -9.70131
530
root 13.6855 15.9174 2.02638 216.047 279.635 -207.537
lowerback 5.31789 0.818489 2.64497
upperback -6.18923 0.863916 -4.1486
thorax -9.47335 -0.00381342 -6.04774
lowerneck 2.45838 -7.16613 -12.9779
upperneck -1.25154 -9.87627 10.6388
head 0.415132 -4.99197 5.2174
rclavicle 9.4547e-015 3.37934e-014
rhumerus -38.7118 4.93178 -98.2991
rradius 88.1082
rwrist 0.912438
rhand 5.2227 29.3674
rfingers 7.12502
rthumb 30.5824 1.88715
lclavicle 9.4547e-015 3.37934e-014
lhumerus -25.2627 -21.0496 105.379
lradius 66.8454
lwrist -14.4831
lhand -36.2972 41.8673
lfingers 7.12502
lthumb -9.39654 71.6379
rfemur -9.93112 -12.9472 16.6906
rtibia 53.4783
rfoot 15.1265 -16.7969
rtoes -4.18471
lfemur -28.9298 5.47875 -34.6711
ltibia 35.7521
lfoot -19.1867 4.03166
ltoes -11.5943
531
root 13.4752 15.8488 2.02859 231.695 279.473 -224.007
lowerback 5.79186 1.34464 0.972656
upperback -5.84566 1.34766 -4.82612
thorax -9.33378 0.326757 -5.89506
lowerneck 3.70847 -8.35717 -13.5625
upperneck -1.99468 -11.6118 11.157
head 0.266313 -5.88835 5.47511
rclavicle 1.71328e-014 3.97569e-015
rhumerus -38.6179 5.75683 -98.3752
rradius 86.5368
rwrist 1.28217
rhand 5.62699 28.9662
rfingers 7.12502
rthumb 30.9678 1.55857
lclavicle 1.71328e-014 3.97569e-015
lhumerus -26.2571 -20.8639 105.311
lradius 66.1702
lwrist -15.3141
lhand -34.8577 38.0546
lfingers 7.12502
lthumb -8.00744 67.8829
rfemur -13.4024 -13.3282 14.049
rtibia 59.9038
rfoot 15.9073 -11.6465
rtoes 2.70419
lfemur -26.8545 5.55999 -36.9886
ltibia 35.1815
lfoot -19.6834 2.10643
ltoes -13.8049
532
root 13.2702 15.7997 2.02674 247.272 278.9 -239.84
lowerback 5.80045 1.67333 0.512314
upperback -5.61725 1.70897 -5.29813
thorax -9.05078 0.524157 -6.18204
lowerneck 4.87731 -9.59168 -13.7613
upperneck -2.49152 -13.4001 11.4161
head 0.184745 -6.81097 5.58549
rclavicle -3.2961e-014 3.18055e-015
rhumerus -38.2896 6.79228 -98.5393
rradius 84.7433
rwrist 1.25877
rhand 6.32411 29.6542
rfingers 7.12502
rthumb 31.6321 2.37517
lclavicle -3.2961e-014 3.18055e-015
lhumerus -26.7308 -20.9795 104.956
lradius 65.5366
lwrist -15.8025
lhand -33.6918 32.4316
lfingers 7.12502
lthumb -6.88209 62.2997
rfemur -17.3653 -13.9925 12.8606
rtibia 65.2814
rfoot 14.3022 -7.29841
rtoes 5.65997
lfemur -25.4447 5.18304 -38.1171
ltibia 34.827
lfoot -19.2555 0.312588
ltoes -11.4255
533
root 13.0595 15.7905 2.01092 261.205 278.643 -253.991
lowerback 5.90505 2.10967 0.369888
upperback -5.45665 2.25632 -5.67592
thorax -8.87003 0.793786 -6.57965
lowerneck 6.07191 -10.8845 -13.7215
upperneck -2.86259 -15.2641 11.6155
head 0.131156 -7.77535 5.63965
rclavicle -1.63376e-014 5.24792e-014
rhumerus -38.1766 7.33737 -98.7743
rradius 82.8738
rwrist 1.19212
rhand 6.35934 30.5534
rfingers 7.12502
rthumb 31.6657 3.281
lclavicle -1.63376e-014 5.24792e-014
lhumerus -27.06 -21.9389 104.745
lradius 65.2022
lwrist -15.6407
lhand -33.5601 28.7743
lfingers 7.12502
lthumb -6.7549 58.6466
rfemur -21.2451 -13.7969 12.3904
rtibia 69.3117
rfoot 11.9259 -5.18708
rtoes 0.631829
lfemur -24.0773 5.47806 -38.6871
ltibia 34.5517
lfoot -19.5231 -1.86723
ltoes -11.6908
534
root 12.8428 15.7753 1.99563 276.728 278.981 -269.505
lowerback 5.72108 2.45754 0.203322
upperback -5.33679 2.67896 -6.11284
thorax -8.57288 1.00306 -6.99448
lowerneck 7.09314 -12.2016 -13.6375
upperneck -3.07568 -17.1421 11.8664
head 0.15784 -8.74679 5.68476
rclavicle -1.06474e-014 -7.55382e-015
rhumerus -38.1922 7.52704 -99.0761
rradius 80.9281
rwrist 1.01766
rhand 5.98567 31.7559
rfingers 7.12502
rthumb 31.3097 4.41392
lclavicle -1.06474e-014 -7.55382e-015
lhumerus -27.2874 -23.1995 104.72
lradius 64.5964
lwrist -16.5432
lhand -33.7255 25.9096
lfingers 7.12502
lthumb -6.91456 55.7766
rfemur -25.1963 -13.8542 11.8371
rtibia 72.2826
rfoot 9.55922 -3.85403
rtoes -2.94718
lfemur -22.8919 5.96523 -39.3446
ltibia 34.3159
lfoot -19.7844 -4.38502
ltoes -12.2351
535
root 12.6248 15.7651 1.9803 292.549 279.909 -285.275
lowerback 5.45928 2.35934 0.0915415
upperback -5.28413 2.53134 -6.28453
thorax -8.37808 0.93676 -7.07975
lowerneck 8.12822 -13.0775 -14.3058
upperneck -3.18911 -18.5001 12.4082
head 0.245984 -9.46098 5.93345
rclavicle -4.05769e-014 1.94809e-014
rhumerus -38.4385 8.59933 -99.4596
rradius 78.9257
rwrist 0.679024
rhand 5.47128 32.593
rfingers 7.12502
rthumb 30.8194 5.15727
lclavicle -4.05769e-014 1.94809e-014
lhumerus -27.6457 -24.0878 104.81
lradius 64.1033
lwrist -18.0524
lhand -34.2604 25.173
lfingers 7.12502
lthumb -7.4309 55.0225
rfemur -28.7639 -13.432 11.542
rtibia 74.1416
rfoot 7.39948 -3.4629
rtoes -2.95204
lfemur -21.6677 6.45448 -39.834
ltibia 34.0715
lfoot -20.038 -7.09282
ltoes -12.4272
536
root 12.4117 15.7555 1.9536 306.632 281.21 -299.512
lowerback 5.56466 2.03956 0.119474
upperback -5.30575 2.115 -6.16367
thorax -8.51675 0.733506 -6.92303
lowerneck 9.2104 -13.7361 -15.1806
upperneck -3.20775 -19.614 12.8794
head 0.350046 -10.0531 6.19513
rclavicle -3.58434e-014 7.15625e-015
rhumerus -38.8868 9.66124 -99.8003
rradius 76.7124
rwrist 0.426513
rhand 5.31838 33.6244
rfingers 7.12502
rthumb 30.6736 6.16121
lclavicle -3.58434e-014 7.15625e-015
lhumerus -28.4037 -24.7404 105.163
lradius 63.8149
lwrist -19.3279
lhand -35.0451 24.9191
lfingers 7.12502
lthumb -8.18828 54.7404
rfemur -31.6934 -12.1301 11.6141
rtibia 75.0177
rfoot 3.57362 -4.19069
rtoes -6.46311
lfemur -20.2395 6.72701 -39.737
ltibia 33.8029
lfoot -20.1901 -9.50014
ltoes -11.8022
537
root 12.1981 15.7329 1.91617 317.944 283.071 -311.132
lowerback 5.90464 1.7968 0.110268
upperback -5.26691 1.7927 -6.08398
thorax -8.71559 0.577434 -6.80923
lowerneck 10.1418 -14.6627 -15.4327
upperneck -3.17346 -21.0182 13.0063
head 0.448362 -10.7837 6.24088
rclavicle -4.81804e-014 5.52621e-014
rhumerus -39.148 9.88589 -99.9706
rradius 74.2229
rwrist 0.0892857
rhand 5.30554 34.8681
rfingers 7.12502
rthumb 30.6614 7.40263
lclavicle -4.81804e-014 5.52621e-014
lhumerus -29.4605 -25.1581 105.837
lradius 63.5898
lwrist -20.8595
lhand -35.3948 24.5554
lfingers 7.12502
lthumb -8.52574 54.3632
rfemur -34.1485 -10.8753 11.6269
rtibia 74.7572
rfoot 0.556639 -4.99023
rtoes -9.89869
lfemur -18.5493 6.13948 -39.3468
ltibia 33.4257
lfoot -20.3813 -11.0449
ltoes -11.8832
538
root 11.9795 15.7263 1.87404 325.324 285.571 -318.915
lowerback 6.38943 1.60604 -0.250109
upperback -5.13493 1.48286 -6.17952
thorax -8.9019 0.442432 -6.68643
lowerneck 10.8959 -15.7338 -15.3132
upperneck -3.07164 -22.5561 13.0832
head 0.572409 -11.5799 6.19516
rclavicle 3.01407e-014 -9.93923e-015
rhumerus -39.4454 9.634 -100.015
rradius 71.7753
rwrist -0.403002
rhand 4.32826 36.1219
rfingers 7.12502
rthumb 29.729 8.48594
lclavicle 3.01407e-014 -9.93923e-015
lhumerus -30.4644 -25.442 106.43
lradius 63.3291
lwrist -22.5134
lhand -34.94 23.5928
lfingers 7.12502
lthumb -8.08683 53.4181
rfemur -35.9858 -10.8729 10.8354
rtibia 73.5995
rfoot -2.38961 -5.02094
rtoes -12.8532
lfemur -16.4884 4.6044 -39.2004
ltibia 32.7634
lfoot -20.746 -11.6093
ltoes -12.6572
539
root 11.7464 15.7326 1.83148 330.002 288.197 -323.824
lowerback 6.58569 1.45715 -0.876613
upperback -5.00309 1.20166 -6.31119
thorax -8.91717 0.339806 -6.43595
lowerneck 11.3539 -16.7873 -15.0913
upperneck -2.71942 -24.0336 13.0492
head 0.781702 -12.3375 6.06604
rclavicle -2.67365e-014 2.38542e-014
rhumerus -39.8657 9.05929 -99.9679
rradius 69.4188
rwrist -0.761526
rhand 3.84074 36.9242
rfingers 7.12502
rthumb 29.2636 9.20611
lclavicle -2.67365e-014 2.38542e-014
lhumerus -31.2792 -25.9402 106.952
lradius 62.8921
lwrist -23.5953
lhand -34.1626 22.2528
lfingers 7.12502
lthumb -7.33653 52.1056
rfemur -37.4452 -11.2749 9.76807
rtibia 71.5599
rfoot -5.05699 -4.9796
rtoes -13.3498
lfemur -14.4463 2.69004 -39.15
ltibia 31.8281
lfoot -20.9105 -11.7226
ltoes -13.2638
540
root 11.5054 15.7621 1.78289 333.67 291.034 -327.514
lowerback 6.556 1.23169 -1.70046
upperback -4.89791 0.805746 -6.40898
thorax -8.83823 0.195079 -6.00952
lowerneck 11.9363 -17.615 -15.5525
upperneck -2.36108 -25.3276 13.7163
head 1.12233 -13.0267 6.21024
rclavicle 2.62644e-014 8.74653e-015
rhumerus -40.1542 8.40022 -99.8554
rradius 66.6577
rwrist -1.09277
rhand 3.43483 36.0003
rfingers 7.12502
rthumb 28.876 8.2153
lclavicle 2.62644e-014 8.74653e-015
lhumerus -32.0164 -26.1504 107.451
lradius 62.474
lwrist -24.1966
lhand -33.4184 21.3177
lfingers 7.12502
lthumb -6.61815 51.1943
rfemur -38.4403 -11.3327 8.59303
rtibia 68.5631
rfoot -6.75457 -6.19812
rtoes -11.313
lfemur -12.4317 0.429281 -39.0888
ltibia 30.4466
lfoot -20.4526 -11.8088
ltoes -13.489
